<?xml version="1.0" encoding="utf-8"?>
<!-- Generator: Adobe Illustrator 25.4.1, SVG Export Plug-In . SVG Version: 6.00 Build 0)  -->
<svg version="1.1" id="Layer_1" xmlns="http://www.w3.org/2000/svg" xmlns:xlink="http://www.w3.org/1999/xlink" x="0px" y="0px"
	 width="340px" height="335.3px" viewBox="0 0 340 335.3" style="enable-background:new 0 0 340 335.3;" xml:space="preserve">
<style type="text/css">
	.st0{fill:#411A50;}
	.st1{fill:#EA4A4D;}
	.st2{fill:#FFFFFF;}
	.st3{fill:#009C63;}
	.st4{fill:#F1B10B;}
	.st5{fill:#6D5EEE;}
	.st6{fill:#2B93D1;}
	.st7{fill:#8AAC2E;}
	.st8{fill:#B74EAF;}
	.st9{fill:#FF7E0B;}
</style>
<g>
	<g>
		<path class="st9" d="M290.7,167.6c0-12.8-10.4-23.3-23.2-23.2c-14.6,0-28.1,4.9-38.8,13.2c0,0,0,0,0,0c-5.5-7.1-9-15.4-10.1-24.3
			l0,0c0,0,0,0,0,0c13.5-1.7,26.5-7.8,36.8-18.1c9.1-9.1,9.1-23.8,0-32.9l0,0c-9.1-9.1-23.8-9.1-32.9,0
			c-10.3,10.3-16.3,23.3-18.1,36.8l0,0c0,0,0,0,0,0c-8.9-1.1-17.3-4.5-24.4-10.1c-1.7,2.2-3.5,4.2-5.4,6.2l0,0
			c-1.5,1.5-3,2.9-4.6,4.2c4.4,3.6,9.3,6.6,14.5,9c0.3,0.2,0.7,0.3,1,0.5c0.3,0.1,0.7,0.3,1,0.4c0.2,0.1,0.4,0.1,0.5,0.2
			c0.2,0.1,0.5,0.2,0.7,0.3c0.3,0.1,0.7,0.2,1,0.4c0.4,0.1,0.8,0.3,1.2,0.4c4.6,1.5,9.3,2.6,14.1,3c0,0,0,0,0,0
			c0.7,7,2.5,13.6,5.2,19.7c0.3,0.8,0.7,1.6,1.1,2.3c0.1,0.3,0.3,0.5,0.4,0.8c0.1,0.2,0.3,0.5,0.4,0.8c0.2,0.5,0.5,0.9,0.7,1.4
			c0,0,0,0,0,0c1.8,3.2,3.9,6.3,6.3,9.1l0,0c1.3,1.6,2.7,3.1,4.2,4.6l0,0c-1.5-1.5-2.9-3-4.2-4.6c-0.2,0.2-0.4,0.5-0.6,0.7
			c-0.2,0.2-0.3,0.4-0.5,0.6c-0.2,0.2-0.4,0.5-0.5,0.7c-0.2,0.2-0.4,0.5-0.5,0.7c-0.1,0.2-0.2,0.3-0.4,0.5c-0.2,0.3-0.5,0.7-0.7,1
			c-0.1,0.2-0.2,0.3-0.4,0.5c0,0-0.1,0.1-0.1,0.1l-0.4,0.7c-0.4,0.7-0.9,1.3-1.3,2c-0.2,0.3-0.3,0.5-0.4,0.7
			c-0.2,0.3-0.3,0.5-0.5,0.8c-0.2,0.3-0.3,0.5-0.5,0.8c-0.2,0.3-0.3,0.5-0.4,0.8c-0.1,0.3-0.3,0.5-0.4,0.8c-0.1,0.3-0.3,0.6-0.4,0.8
			c-0.2,0.3-0.3,0.7-0.5,1.1c-0.3,0.7-0.6,1.4-0.9,2.1c-0.1,0.2-0.2,0.5-0.3,0.7c-0.1,0.2-0.1,0.3-0.2,0.5c0,0.1-0.1,0.2-0.1,0.3
			c-0.3,0.7-0.5,1.4-0.8,2.1c0,0.1,0,0.1,0,0.2c-1.7,4.7-2.8,9.6-3.3,14.8c0,0,0,0,0,0c0,0.5-0.1,1-0.1,1.5c0-0.5,0.1-1.1,0.1-1.5
			c-6,0.6-11.9,2-17.5,4.3c-0.3,0.1-0.7,0.3-1,0.4c-0.4,0.1-0.7,0.3-1.1,0.5c-5.2,2.3-10.1,5.4-14.5,9c0,0,0,0,0,0
			c-1.6,1.3-3.1,2.7-4.6,4.2l0,0c1.5-1.5,3-2.9,4.6-4.2c-10-8.2-21.9-12.9-34.1-14.1c0,0,0,0,0,0c-2.1-0.2-4.1-0.3-6.2-0.3v0
			c2.1,0,4.1,0.1,6.2,0.3c-1.2-12.2-5.9-24.1-14.1-34.1l0,0c0,0,0,0,0,0c3.5-4.3,6.5-9,8.8-14.2c0.1-0.3,0.3-0.6,0.4-0.9
			c0.2-0.4,0.4-0.9,0.6-1.4c0.1-0.4,0.3-0.7,0.4-1.1c0.1-0.3,0.3-0.7,0.4-1c0.1-0.3,0.2-0.6,0.3-1c1.6-4.8,2.7-9.7,3.2-14.7
			c0,0,0,0,0,0c0.2-2.1,0.3-4.1,0.3-6.2h0c0,2.1-0.1,4.2-0.3,6.2c0.6-0.1,1.3-0.1,1.9-0.2c0.4,0,0.7-0.1,1.1-0.1
			c0.3,0,0.7-0.1,1-0.2c0.3,0,0.5-0.1,0.8-0.1c0,0,0.1,0,0.1,0c0,0,0.1,0,0.2,0c0.2,0,0.4-0.1,0.6-0.1c0.3,0,0.5-0.1,0.8-0.2
			c0.3-0.1,0.5-0.1,0.8-0.2c0.1,0,0.2,0,0.3-0.1c0.3-0.1,0.5-0.1,0.8-0.2c0.1,0,0.1,0,0.2,0c0.3-0.1,0.7-0.2,1-0.2
			c0.3-0.1,0.7-0.2,1-0.3c0.3-0.1,0.7-0.2,1-0.3c0.3-0.1,0.6-0.2,1-0.3c0.3-0.1,0.5-0.2,0.8-0.2c0.2-0.1,0.5-0.1,0.7-0.2
			c0.2-0.1,0.5-0.2,0.7-0.2c0.3-0.1,0.6-0.2,1-0.3c0.3-0.1,0.7-0.2,1-0.4c0.4-0.1,0.7-0.3,1.1-0.4c0.5-0.2,1-0.4,1.5-0.7
			c0.2-0.1,0.5-0.2,0.7-0.3c5.1-2.3,9.9-5.3,14.2-8.8l0,0c1.6-1.3,3.1-2.7,4.6-4.2c1.9-1.9,3.7-4,5.4-6.2c0,0,0,0,0,0
			c8.3-10.7,13.2-24.2,13.2-38.8c0-12.8-10.4-23.2-23.2-23.3c0,0,0,0,0,0c-12.8,0-23.3,10.4-23.3,23.3c0,14.6,4.9,28,13.2,38.8l0,0
			c-2.2,1.8-4.6,3.3-7,4.6c-0.3,0.2-0.7,0.4-1,0.5c-0.2,0.1-0.5,0.3-0.8,0.4c-0.2,0.1-0.4,0.2-0.6,0.3c-0.1,0.1-0.2,0.1-0.4,0.2
			c-0.2,0.1-0.4,0.2-0.7,0.3c-0.1,0.1-0.3,0.1-0.4,0.2c-0.3,0.1-0.5,0.2-0.8,0.3c-0.1,0-0.2,0.1-0.3,0.1c-0.3,0.1-0.5,0.2-0.8,0.3
			c-0.1,0-0.2,0.1-0.3,0.1c-0.2,0.1-0.5,0.2-0.7,0.3c-3.4,1.2-7,2.1-10.6,2.5c0,0,0,0,0,0c-1.7-13.5-7.8-26.5-18.1-36.8
			c-9.1-9.1-23.8-9.1-32.9,0c-9.1,9.1-9.1,23.8,0,32.9c10.3,10.3,23.3,16.3,36.8,18.1c0,0,0,0,0,0c-1.1,8.9-4.5,17.3-10.1,24.3
			c0,0,0,0,0,0c-11.1-8.6-24.6-13.2-38.8-13.2c-6.2,0-12.1,2.4-16.4,6.8c-4.4,4.4-6.8,10.2-6.8,16.4c0,0,0,0,0,0
			c0,6.2,2.4,12,6.8,16.4c4.4,4.4,10.2,6.8,16.4,6.8c14.6,0,28.1-4.9,38.8-13.2c0,0,0,0,0,0c5.5,7.1,9,15.4,10.1,24.3c0,0,0,0,0,0
			c-13.5,1.7-26.5,7.8-36.8,18.1c-9.1,9.1-9.1,23.8,0,32.9c0,0,0,0,0.1,0.1c9.1,9,23.8,9,32.8-0.1c10.3-10.3,16.3-23.3,18.1-36.8
			c0,0,0,0,0,0c8.9,1.1,17.3,4.5,24.4,10.1c0,0,0,0,0,0c-8.3,10.7-13.2,24.2-13.2,38.8c0,6.4,2.6,12.2,6.8,16.4
			c4.2,4.2,10,6.8,16.4,6.8c0,0,0,0,0.1,0c6.2,0,12-2.4,16.4-6.8c4.4-4.4,6.8-10.2,6.8-16.4c0-14.2-4.6-27.7-13.2-38.8c0,0,0,0,0,0
			c7.1-5.5,15.4-9,24.3-10.1c-0.4-2.7-0.5-5.5-0.5-8.2c0,0,0,0,0-0.1c0,0,0,0,0,0.1c0,2.7,0.2,5.5,0.5,8.2c0,0,0,0,0,0
			c1.7,13.5,7.8,26.5,18.1,36.8c8.1,8.1,20.9,9,29.9,2.5c1-0.7,2-1.6,3-2.5c0.8-0.8,1.6-1.7,2.2-2.6c6.8-9.1,6-22-2.2-30.3
			C245,209.8,232,203.7,218.6,202l0,0c0,0,0,0,0,0c0.4-3.2,1.1-6.2,2-9.2c0.1-0.4,0.2-0.7,0.4-1.1c0,0,0-0.1,0-0.1
			c0.1-0.3,0.2-0.5,0.3-0.8c0.1-0.3,0.2-0.6,0.3-0.9c0,0,0-0.1,0.1-0.1c0.1-0.3,0.2-0.6,0.3-0.9c0-0.1,0.1-0.2,0.1-0.3
			c0.1-0.3,0.3-0.7,0.4-1c0.1-0.3,0.3-0.7,0.5-1c0,0,0-0.1,0-0.1c0.1-0.2,0.2-0.4,0.3-0.6c0.2-0.4,0.4-0.7,0.6-1.1
			c1.3-2.5,2.9-5,4.7-7.3c0,0,0,0,0,0l0,0c10.7,8.3,24.2,13.2,38.8,13.2C280.2,190.9,290.6,180.5,290.7,167.6
			C290.7,167.7,290.7,167.7,290.7,167.6z M232.6,92.5c3.5-3.5,9.1-3.5,12.6,0l0,0c3.4,3.5,3.4,9.1,0,12.6
			c-7.4,7.4-16.6,12-26.3,13.7C220.6,109.1,225.2,99.9,232.6,92.5z M170,61.3C170,61.3,170,61.3,170,61.3c4.9,0,8.9,4,8.9,8.9
			c0,10.5-3.3,20.2-8.9,28.2c-5.8-8.2-8.9-18-8.9-28.3C161.1,65.3,165.1,61.3,170,61.3z M94.8,105.1c-3.5-3.5-3.5-9.1,0-12.6
			c3.5-3.5,9.1-3.5,12.6,0c7.4,7.4,12,16.6,13.7,26.3C111.5,117,102.2,112.5,94.8,105.1z M72.6,176.6c-2.4,0-4.6-0.9-6.3-2.6
			c-1.7-1.7-2.6-3.9-2.6-6.3c0,0,0,0,0,0c0-2.4,0.9-4.6,2.6-6.3c1.7-1.7,3.9-2.6,6.3-2.6c10.3,0,20,3.1,28.3,8.9
			C92.6,173.4,82.8,176.6,72.6,176.6z M107.4,242.8c-3.5,3.5-9.1,3.5-12.5,0.1c0,0,0,0-0.1-0.1c-3.5-3.5-3.5-9.1,0-12.6
			c7.4-7.4,16.6-12,26.3-13.7C119.4,226.2,114.8,235.4,107.4,242.8z M176.3,271.4c-1.7,1.7-3.9,2.6-6.2,2.6c0,0,0,0-0.1,0
			c-4.9,0-8.9-4-8.9-8.9c0-10.3,3.1-20.1,8.9-28.3c5.8,8.2,8.9,18,8.9,28.3C178.9,267.5,178,269.7,176.3,271.4z M204.2,201.1
			c0.4-4.2,1.3-8.3,2.6-12.3C205.6,192.8,204.7,197,204.2,201.1z M245.2,230.2c2.6,2.6,3.3,6.5,1.9,9.7c-0.4,1.1-1.1,2-1.9,2.9
			c-1,1-2.1,1.7-3.3,2.1c-3.1,1.1-6.8,0.4-9.3-2.1c-7.4-7.4-12-16.6-13.7-26.3C228.6,218.3,237.8,222.8,245.2,230.2z M204.4,133.5
			c2,0.2,4,0.3,6,0.3l0,0C208.4,133.8,206.4,133.7,204.4,133.5z M276.3,167.7c0,4.9-4,8.9-8.9,8.9c-10.2,0-20-3.1-28.2-8.9
			c8-5.6,17.7-8.9,28.2-8.9C272.3,158.7,276.3,162.7,276.3,167.7C276.3,167.7,276.3,167.7,276.3,167.7z"/>
	</g>
</g>
</svg>
